<svg xmlns="http://www.w3.org/2000/svg" width="24" height="24" viewBox="0 0 24 24"><defs><style>.a{fill:#fff;}.b{fill:none;}</style></defs><g transform="translate(0.1 0.099)"><path class="a" d="M5.481,8.962H3.987V5.975H5.481ZM8.469,5.975H6.975V8.962H8.469Zm2.987,0H9.962V8.962h1.494ZM5.481,10.456H3.987v2.987H5.481Zm2.987,0H6.975v2.987H8.469Zm2.987,0H9.962v2.987h1.494Zm5.975,0H15.937v2.987h1.494Zm2.987,0H18.925v2.987h1.494Zm2.987-4.481V23.9H1V2.987L14.444,0V5.975ZM8.469,22.406V17.925H6.975v4.481ZM12.95,1.862,2.494,4.182V22.406H5.481V16.431H9.962v5.975H12.95Zm5.975,20.544V17.925H17.431v4.481ZM21.912,7.469H14.444V22.406h1.494V16.431h4.481v5.975h1.494Z" transform="translate(-0.253)"/><rect class="b" width="24" height="24" transform="translate(-0.1 -0.099)"/></g></svg>